<svg xmlns="http://www.w3.org/2000/svg" xmlns:xlink="http://www.w3.org/1999/xlink" version="1.1" width="433" height="295" viewBox="0 0 433 295">
<defs>
<clipPath id="clip_0">
<path transform="matrix(1,0,0,-1,0,295)" d="M0 295H433V0H0Z"/>
</clipPath>
</defs>
<g id="layer_1" data-name="Слой 1">
<!-- <path transform="matrix(1,0,0,-1,0,295)" d="M0 0H433V295H0Z" fill="#0066b3"/> --><!-- FEFU BLUE #0 066b3 -->
<g clip-path="url(#clip_0)">
<path transform="matrix(1,0,0,-1,56.4753,104.68111)" d="M0 0C-.55 .507-1.093 1.008-1.63 1.507-1.318 1.702-1.014 1.9-.692 2.09 2.587 4.025 6.568 6.212 10.843 8.672 14.439 5.969 18.112 3.409 21.817 .979 17.473-1.65 12.938-4.369 8.413-7.174 5.501-4.847 2.672-2.459 0 0M52.945-87.425C34.92-75.96 6.677-65.533-9.715-49.748-9.959-49.513-10.2-49.285-10.443-49.055-10.238-48.887-10.038-48.722-9.831-48.553-5.881-45.342-1.294-42.211 3.651-39.043 24.124-54.749 51.042-66.555 59.443-71.787 68.258-77.282 75.656-85.12 78.17-97.407 80.408-83.555 80.908-68.977 77.147-60.042 72.505-49.01 65.585-42.873 55.646-37.42 48.216-33.341 39.226-28.272 30.023-22.432 34.84-19.211 39.59-15.803 44.087-12.128 47.845-14.133 51.533-16.021 55.096-17.796 67.973-24.209 75.116-31.345 78.159-42 82.362-22.208 78.142-12.451 74.476-6.513 70.701-.399 65.612 3.931 61.694 6.657 65.706 15.255 61.217 26.785 52.368 30.39 54.106 25.625 50.269 20.873 44.732 16.28 40.687 18.456 36.501 20.702 32.342 23.007 35.586 25.665 38.643 28.51 41.314 31.581 48.511 39.852 44.15 49.938 35.345 52.733 37.262 46.922 29.227 42.008 25.101 39.475 21.953 37.543 18.37 35.673 14.584 33.7 11.683 35.669 8.986 37.665 6.59 39.685 6.247 39.974 5.926 40.265 5.596 40.555 5.761 40.641 5.92 40.729 6.088 40.815 14.488 45.135 22.154 50.72 26.797 55.636 32.467 61.639 27.902 70.903 22.475 72.014 23.3 67.225 18.175 64.498 14.533 62.656 9.181 59.949 2.313 56.803-3.484 52.366-4.029 51.949-4.567 51.524-5.084 51.087-8.136 48.501-10.519 44.623-11.342 40.135-12.128 35.851-11.407 30.84-8.508 26.433-8.186 25.99-7.847 25.549-7.495 25.112-6.716 24.146-5.87 23.18-4.967 22.224-7.832 20.161-10.617 17.898-13.223 15.341-13.228 15.338-13.233 15.334-13.237 15.329-17.954 10.699-21.26 4.255-21.395-1.759-21.497-6.353-20.799-10.69-16.643-17.807-15.754-19.314-14.742-20.8-13.643-22.269-18.018-25.738-21.948-29.305-25.128-32.969-25.203-33.058-25.277-33.147-25.354-33.236-35.676-47.45-35.017-59.473-28.221-69.93-16.811-87.485 11.811-100.752 34.801-112.278 46.092-117.942 56.256-124.086 64.463-133.758 69.966-140.237 74.826-148.051 78.17-158.319 80.702-144.281 80.548-125.846 77.037-115.879 73.715-106.444 66.95-96.336 52.945-87.425" fill="#0066b3"/>
<path transform="matrix(1,0,0,-1,183.9656,134.9245)" d="M0 0V0-5.661C0-14.296-.943-22.421-4.272-27.86H10.204V0ZM27.289 12.188V-27.86H31.85V-46.13H15.489V-40.05H-8.833V-46.13H-25.196V-27.86H-21.069C-17.449-20.825-16.363-12.914-16.363-1.234V12.188Z" fill="#0066b3"/>
<path transform="matrix(1,0,0,-1,242.9639,162.7849)" d="M0 0V0H7.457C11.656 0 14.844 .871 14.844 4.785 14.844 9.357 10.86 9.651 5.432 9.651H0ZM0 19.153V19.153H7.097C10.498 19.153 12.959 20.677 12.959 23.725 12.959 27.787 9.629 27.86 6.011 27.86H0ZM-17.084 40.049H7.82C19.547 40.049 28.885 37.291 28.885 26.916 28.885 21.547 25.412 17.628 22.078 15.525 27.726 14.075 30.768 9.215 30.768 3.553 30.768-8.125 21.863-12.189 8.327-12.189H-17.084Z" fill="#0066b3"/>
<path transform="matrix(1,0,0,-1,322.1514,155.6033)" d="M0 0V0H3.257C7.674 0 9.627 2.901 9.627 7.401 9.627 12.263 7.529 14.656 2.244 14.656H0ZM-17.084 14.656V14.656H-19.398C-24.684 14.656-26.712 12.263-26.712 7.401-26.712 2.901-24.755 0-20.341 0H-17.084ZM0 32.867V26.846H3.982C19.183 26.846 25.988 17.993 25.988 7.254 25.988-3.99 19.183-12.187 4.201-12.187H0V-19.371H-17.084V-12.187H-21.283C-36.266-12.187-43.07-3.99-43.07 7.254-43.07 17.993-36.266 26.846-21.067 26.846H-17.084V32.867Z" fill="#0066b3"/>
<path transform="matrix(1,0,0,-1,366.4952,122.736408)" d="M0 0 8.323-20.604 16.576 0H34.965L15.708-40.775C11.291-50.134 6.934-53.261 .36-53.617-2.455-53.769-6.337-53.404-10.916-52.103V-40.125C-7.853-40.683-6.064-41.117-4.128-40.847-2.444-40.611-1.087-40.049-.072-37.945L-19.258 0Z" fill="#0066b3"/>
<path transform="matrix(1,0,0,-1,164.5684,192.3602)" d="M0 0V0-1.544C0-3.904-.256-6.123-1.167-7.608H2.788V0ZM7.455 3.328V-7.608H8.699V-13.412H4.231V-10.936H-2.413V-13.412H-6.882V-7.608H-5.756C-4.764-5.686-4.468-3.524-4.468-.334V3.328Z" fill="#0066b3"/>
<path transform="matrix(1,0,0,-1,183.1982,198.4401)" d="M0 0V0L-1.502 5.109-2.945 0ZM.911 9.408 6.013-4.856H1.365L.811-2.977H-3.835L-4.369-4.856H-8.935L-3.835 9.408Z" fill="#0066b3"/>
<path transform="matrix(1,0,0,-1,205.3019,189.032)" d="M0 0V-14.265H-4.664V-3.328H-8.007V-7.389C-8.007-13.137-9.805-14.562-12.473-14.562-13.444-14.562-14.076-14.482-15.006-14.265V-10.936C-14.73-11.036-14.474-11.076-13.937-11.076-13.009-11.076-12.473-10.698-12.473-7.35V0Z" fill="#0066b3"/>
<path transform="matrix(1,0,0,-1,212.2139,199.9684)" d="M0 0V0H1.72C2.865 0 3.736 .238 3.736 1.308 3.736 2.557 2.648 2.637 1.166 2.637H0ZM0 5.965H2.213C5.814 5.965 8.086 4.34 8.086 1.229 8.086-1.82 5.852-3.328 2.154-3.328H-4.667V10.936H0Z" fill="#0066b3"/>
<path transform="matrix(1,0,0,-1,226.7687,194.0037)" d="M0 0H4.41V4.972H9.076V-9.293H4.41V-3.328H0V-9.293H-4.666V4.972H0Z" fill="#0066b3"/>
<path transform="matrix(1,0,0,-1,250.2198,189.032)" d="M0 0V-3.328H-6.94V-5.367H-1.069V-8.696H-6.94V-10.936H.277V-14.265H-11.607V0Z" fill="#0066b3"/>
<path transform="matrix(1,0,0,-1,257.4356,199.9684)" d="M0 0V0H2.036C3.186 0 4.052 .238 4.052 1.308 4.052 2.557 2.965 2.637 1.481 2.637H0ZM0 5.233V5.233H1.937C2.868 5.233 3.54 5.647 3.54 6.48 3.54 7.589 2.63 7.608 1.642 7.608H0ZM-4.666 10.936H2.135C5.339 10.936 7.888 10.185 7.888 7.353 7.888 5.885 6.939 4.816 6.03 4.24 7.573 3.843 8.403 2.517 8.403 .973 8.403-2.22 5.971-3.328 2.275-3.328H-4.666Z" fill="#0066b3"/>
<path transform="matrix(1,0,0,-1,272.165,196.08371)" d="M0 0V0C0-1.822 .555-4.104 2.789-4.104 4.805-4.104 5.596-2.356 5.596 0 5.596 1.941 4.825 3.942 2.748 3.942 .633 3.942 0 1.802 0 0M10.262 0C10.262-4.857 7-7.591 2.789-7.591-1.68-7.591-4.664-4.814-4.664 .039-4.664 4.518-1.64 7.433 2.789 7.433 7.869 7.433 10.262 3.767 10.262 0" fill="#0066b3"/>
<path transform="matrix(1,0,0,-1,294.3869,194.47931)" d="M0 0C-.14 1.487-1.068 2.338-2.53 2.338-4.173 2.338-5.159 .931-5.159-1.822-5.159-3.826-4.722-5.709-2.352-5.709-.851-5.709-.14-4.655 .041-3.29H4.53C4.111-6.976 1.481-9.195-2.274-9.195-6.979-9.195-9.825-6.302-9.825-1.666-9.825 2.952-6.702 5.828-2.728 5.828 1.622 5.828 4.053 3.665 4.431 0Z" fill="#0066b3"/>
<path transform="matrix(1,0,0,-1,309.002,203.29651)" d="M0 0H-4.667V10.936H-8.859V14.265H4.19V10.936H0Z" fill="#0066b3"/>
<path transform="matrix(1,0,0,-1,318.8918,196.08371)" d="M0 0V0C0-1.822 .554-4.104 2.789-4.104 4.806-4.104 5.598-2.356 5.598 0 5.598 1.941 4.824 3.942 2.748 3.942 .633 3.942 0 1.802 0 0M10.263 0C10.263-4.857 7-7.591 2.789-7.591-1.68-7.591-4.666-4.814-4.666 .039-4.666 4.518-1.643 7.433 2.789 7.433 7.87 7.433 10.263 3.767 10.263 0" fill="#0066b3"/>
<path transform="matrix(1,0,0,-1,335.5148,189.032)" d="M0 0V-3.684C0-4.814 .652-5.328 1.777-5.328 2.688-5.328 3.478-5.211 3.894-5.069V0H8.56V-14.265H3.894V-8.498C3.066-8.696 2.473-8.815 0-8.815-2.096-8.815-4.666-7.508-4.666-4.417V0Z" fill="#0066b3"/>
<path transform="matrix(1,0,0,-1,351.5087,194.0037)" d="M0 0H4.408V4.972H9.077V-9.293H4.408V-3.328H0V-9.293H-4.664V4.972H0Z" fill="#0066b3"/>
<path transform="matrix(1,0,0,-1,382.7882,203.29651)" d="M0 0V0H-4.663V14.265H0ZM-14.769 3.328V3.328H-13.049C-11.902 3.328-11.03 3.566-11.03 4.636-11.03 5.885-12.12 5.965-13.603 5.965H-14.769ZM-14.769 9.293H-12.554C-8.954 9.293-6.681 7.668-6.681 4.558-6.681 1.509-8.917 0-12.613 0H-19.437V14.265H-14.769Z" fill="#0066b3"/>
<path transform="matrix(1,0,0,-1,390.5577,184.9479)" d="M0 0V0C.143-1.111 1.209-1.228 2.115-1.228 3.342-1.228 3.936-.851 4.075 0H5.619C5.539-2.041 3.897-3.03 1.998-3.03-.078-3.03-1.403-2.199-1.562 0ZM8.74-4.084V-18.349H4.272V-13.811L4.51-10.165-.632-18.349H-5.001V-4.084H-.532V-8.62L-.77-12.265 4.369-4.084Z" fill="#0066b3"/>
<path transform="matrix(1,0,0,-1,174.1177,223.9305)" d="M0 0V0H1.196C2.818 0 3.537 1.066 3.537 2.718 3.537 4.503 2.764 5.383 .823 5.383H0ZM-6.276 5.383V5.383H-7.126C-9.067 5.383-9.81 4.503-9.81 2.718-9.81 1.066-9.094 0-7.474 0H-6.276ZM0 12.069V9.86H1.463C7.048 9.86 9.545 6.61 9.545 2.665 9.545-1.466 7.048-4.478 1.542-4.478H0V-7.116H-6.276V-4.478H-7.817C-13.321-4.478-15.821-1.466-15.821 2.665-15.821 6.61-13.321 9.86-7.737 9.86H-6.276V12.069Z" fill="#0066b3"/>
<path transform="matrix(1,0,0,-1,201.5475,211.861)" d="M0 0V-4.474H-9.334V-7.219H-1.439V-11.698H-9.334V-14.706H.374V-19.186H-15.609V0Z" fill="#0066b3"/>
<path transform="matrix(1,0,0,-1,213.6534,216.3347)" d="M0 0V0-2.08C0-5.25-.344-8.236-1.568-10.233H3.752V0ZM10.026 4.474V-10.233H11.702V-17.469H5.689V-14.712H-3.243V-17.469H-9.25V-10.233H-7.736C-6.407-7.648-6.008-4.747-6.008-.453V4.474Z" fill="#0066b3"/>
<path transform="matrix(1,0,0,-1,243.7862,211.861)" d="M0 0V-4.474H-9.334V-7.219H-1.435V-11.698H-9.334V-14.706H.371V-19.186H-15.609V0Z" fill="#0066b3"/>
<path transform="matrix(1,0,0,-1,253.2199,220.60031)" d="M0 0V0H2.606C4.068 0 5.131 .585 5.131 2.238 5.131 4.026 3.111 4.266 1.781 4.266H0ZM0-10.446H-6.274V8.739H2.949C8.455 8.739 11.113 6.211 11.113 2.266 11.113-1.865 8.668-4.476 3.164-4.476H0Z" fill="#0066b3"/>
<path transform="matrix(1,0,0,-1,274.9072,224.5164)" d="M0 0V0L-2.023 6.875-3.962 0ZM1.223 12.655 8.082-6.53H1.832L1.088-3.998H-5.158L-5.877-6.53H-12.019L-5.158 12.655Z" fill="#0066b3"/>
<path transform="matrix(1,0,0,-1,304.9893,211.861)" d="M0 0V-19.186H-6.276V-4.474H-10.771V-9.939C-10.771-17.664-13.189-19.582-16.779-19.582-18.082-19.582-18.932-19.481-20.184-19.186V-14.706C-19.812-14.841-19.463-14.896-18.746-14.896-17.496-14.896-16.779-14.389-16.779-9.882V0Z" fill="#0066b3"/>
<path transform="matrix(1,0,0,-1,314.9854,226.56729)" d="M0 0V0H2.314C3.855 0 5.025 .318 5.025 1.758 5.025 3.437 3.565 3.544 1.568 3.544H0ZM0 8.02H2.978C7.817 8.02 10.875 5.836 10.875 1.649 10.875-2.454 7.871-4.479 2.898-4.479H-6.274V14.706H0Z" fill="#0066b3"/>
<path transform="matrix(1,0,0,-1,335.0323,218.5475)" d="M0 0H5.929V6.686H12.205V-12.499H5.929V-4.476H0V-12.499H-6.275V6.686H0Z" fill="#0066b3"/>
<path transform="matrix(1,0,0,-1,377.0976,231.0466)" d="M0 0V0H-6.274V19.186H0ZM-19.863 4.479V4.479H-17.548C-16.009 4.479-14.837 4.797-14.837 6.237-14.837 7.916-16.3 8.024-18.294 8.024H-19.863ZM-19.863 12.499H-16.884C-12.045 12.499-8.986 10.315-8.986 6.129-8.986 2.025-11.992 0-16.964 0H-26.137V19.186H-19.863Z" fill="#0066b3"/>
<path transform="matrix(1,0,0,-1,387.5461,206.3698)" d="M0 0V0C.185-1.491 1.624-1.651 2.844-1.651 4.495-1.651 5.293-1.147 5.477 0H7.555C7.447-2.741 5.238-4.076 2.688-4.076-.106-4.076-1.888-2.957-2.103 0ZM11.752-5.491V-24.677H5.743V-18.573L6.062-13.671-.855-24.677H-6.727V-5.491H-.716V-11.591L-1.035-16.494 5.876-5.491Z" fill="#0066b3"/>
<path transform="matrix(1,0,0,-1,165.4596,240.5038)" d="M0 0 3.288-8.139 6.546 0H13.81L6.203-16.105C4.462-19.8 2.714-21.176 .145-21.176-.973-21.176-2.257-20.86-3.03-20.546V-15.846C-2.63-15.99-2.401-16.133-1.629-16.133-.914-16.133-.427-15.818-.028-14.986L-7.605 0Z" fill="#0066b3"/>
<path transform="matrix(1,0,0,-1,188.3077,247.69699)" d="M0 0H6.373V7.193H13.123V-13.438H6.373V-4.814H0V-13.438H-6.748V7.193H0Z" fill="#0066b3"/>
<path transform="matrix(1,0,0,-1,225.3078,240.5038)" d="M0 0V-20.632H-6.463V-14.07L-6.119-8.798-13.553-20.632H-19.871V0H-13.411V-6.563L-13.752-11.834-6.32 0Z" fill="#0066b3"/>
<path transform="matrix(1,0,0,-1,236.0615,256.322)" d="M0 0V0H2.944C4.602 0 5.86 .346 5.86 1.889 5.86 3.695 4.288 3.811 2.145 3.811H0ZM0 7.565V7.565H2.799C4.145 7.565 5.115 8.166 5.115 9.37 5.115 10.975 3.801 11.007 2.372 11.007H0ZM-6.748 15.818H3.086C7.719 15.818 11.406 14.729 11.406 10.628 11.406 8.511 10.035 6.964 8.719 6.133 10.947 5.56 12.15 3.641 12.15 1.405 12.15-3.213 8.632-4.813 3.285-4.813H-6.748Z" fill="#0066b3"/>
<path transform="matrix(1,0,0,-1,268.2844,240.5038)" d="M0 0V-4.811H-10.035V-7.768H-1.543V-12.579H-10.035V-15.818H.401V-20.632H-16.782V0Z" fill="#0066b3"/>
<path transform="matrix(1,0,0,-1,278.7238,249.9041)" d="M0 0V0H2.801C4.375 0 5.518 .632 5.518 2.406 5.518 4.328 3.346 4.589 1.915 4.589H0ZM0-11.231H-6.747V9.4H3.175C9.09 9.4 11.95 6.679 11.95 2.436 11.95-2.006 9.318-4.814 3.403-4.814H0Z" fill="#0066b3"/>
<path transform="matrix(1,0,0,-1,307.1182,248.3844)" d="M0 0C-.202 2.148-1.545 3.382-3.659 3.382-6.033 3.382-7.463 1.348-7.463-2.636-7.463-5.529-6.833-8.252-3.401-8.252-1.229-8.252-.202-6.733 .057-4.757H6.547C5.945-10.09 2.143-13.295-3.29-13.295-10.094-13.295-14.209-9.111-14.209-2.405-14.209 4.27-9.693 8.423-3.947 8.423 2.344 8.423 5.861 5.302 6.404 0Z" fill="#0066b3"/>
<path transform="matrix(1,0,0,-1,336.3955,240.5038)" d="M0 0V-20.632H-6.459V-14.07L-6.116-8.798-13.55-20.632H-19.869V0H-13.407V-6.563L-13.749-11.834-6.316 0Z" fill="#0066b3"/>
<path transform="matrix(1,0,0,-1,352.0966,261.1355)" d="M0 0H-6.748V15.82H-12.808V20.632H6.062V15.82H0Z" fill="#0066b3"/>
<path transform="matrix(1,0,0,-1,377.8321,240.5038)" d="M0 0V-4.811H-10.035V-7.768H-1.542V-12.579H-10.035V-15.818H.401V-20.632H-16.783V0Z" fill="#0066b3"/>
<path transform="matrix(1,0,0,-1,393.2168,261.1355)" d="M0 0H-6.745V15.82H-12.809V20.632H6.062V15.82H0Z" fill="#0066b3"/>
</g>
</g>
</svg>
