<svg xmlns="http://www.w3.org/2000/svg" xmlns:xlink="http://www.w3.org/1999/xlink" version="1.1" width="160" height="240" viewBox="0 0 160 240">
<defs>
<clipPath id="clip_0">
<path transform="matrix(1,0,0,-1,0,295)" d="M0 295H433V0H0Z"/>
</clipPath>
</defs>
<g id="layer_1" data-name="Слой 1">
<g clip-path="url(#clip_0)">
<path transform="matrix(1,0,0,-1,56.4753,74.68111)" d="M0 0C-.55 .507-1.093 1.008-1.63 1.507-1.318 1.702-1.014 1.9-.692 2.09 2.587 4.025 6.568 6.212 10.843 8.672 14.439 5.969 18.112 3.409 21.817 .979 17.473-1.65 12.938-4.369 8.413-7.174 5.501-4.847 2.672-2.459 0 0M52.945-87.425C34.92-75.96 6.677-65.533-9.715-49.748-9.959-49.513-10.2-49.285-10.443-49.055-10.238-48.887-10.038-48.722-9.831-48.553-5.881-45.342-1.294-42.211 3.651-39.043 24.124-54.749 51.042-66.555 59.443-71.787 68.258-77.282 75.656-85.12 78.17-97.407 80.408-83.555 80.908-68.977 77.147-60.042 72.505-49.01 65.585-42.873 55.646-37.42 48.216-33.341 39.226-28.272 30.023-22.432 34.84-19.211 39.59-15.803 44.087-12.128 47.845-14.133 51.533-16.021 55.096-17.796 67.973-24.209 75.116-31.345 78.159-42 82.362-22.208 78.142-12.451 74.476-6.513 70.701-.399 65.612 3.931 61.694 6.657 65.706 15.255 61.217 26.785 52.368 30.39 54.106 25.625 50.269 20.873 44.732 16.28 40.687 18.456 36.501 20.702 32.342 23.007 35.586 25.665 38.643 28.51 41.314 31.581 48.511 39.852 44.15 49.938 35.345 52.733 37.262 46.922 29.227 42.008 25.101 39.475 21.953 37.543 18.37 35.673 14.584 33.7 11.683 35.669 8.986 37.665 6.59 39.685 6.247 39.974 5.926 40.265 5.596 40.555 5.761 40.641 5.92 40.729 6.088 40.815 14.488 45.135 22.154 50.72 26.797 55.636 32.467 61.639 27.902 70.903 22.475 72.014 23.3 67.225 18.175 64.498 14.533 62.656 9.181 59.949 2.313 56.803-3.484 52.366-4.029 51.949-4.567 51.524-5.084 51.087-8.136 48.501-10.519 44.623-11.342 40.135-12.128 35.851-11.407 30.84-8.508 26.433-8.186 25.99-7.847 25.549-7.495 25.112-6.716 24.146-5.87 23.18-4.967 22.224-7.832 20.161-10.617 17.898-13.223 15.341-13.228 15.338-13.233 15.334-13.237 15.329-17.954 10.699-21.26 4.255-21.395-1.759-21.497-6.353-20.799-10.69-16.643-17.807-15.754-19.314-14.742-20.8-13.643-22.269-18.018-25.738-21.948-29.305-25.128-32.969-25.203-33.058-25.277-33.147-25.354-33.236-35.676-47.45-35.017-59.473-28.221-69.93-16.811-87.485 11.811-100.752 34.801-112.278 46.092-117.942 56.256-124.086 64.463-133.758 69.966-140.237 74.826-148.051 78.17-158.319 80.702-144.281 80.548-125.846 77.037-115.879 73.715-106.444 66.95-96.336 52.945-87.425" fill="#0066b3"/>
</g>
</g>
</svg>
